<svg width="61" height="61" viewBox="0 0 61 61" fill="none" xmlns="http://www.w3.org/2000/svg">
<circle cx="30.5" cy="30.5" r="30.5" fill="#D7EBFF"/>
<path d="M40.06 30.82L39.9 30.6C39.62 30.26 39.29 29.99 38.91 29.79C38.4 29.5 37.82 29.35 37.22 29.35H24.77C24.17 29.35 23.6 29.5 23.08 29.79C22.69 30 22.34 30.29 22.05 30.65C21.48 31.38 21.21 32.28 21.3 33.18L21.67 37.85C21.8 39.26 21.97 41 25.14 41H36.86C40.03 41 40.19 39.26 40.33 37.84L40.7 33.19C40.79 32.35 40.57 31.51 40.06 30.82ZM33.39 36.34H28.6C28.21 36.34 27.9 36.02 27.9 35.64C27.9 35.26 28.21 34.94 28.6 34.94H33.39C33.78 34.94 34.09 35.26 34.09 35.64C34.09 36.03 33.78 36.34 33.39 36.34Z" fill="#012D59"/>
<path d="M39.5611 27.5964C39.5987 27.9793 39.1834 28.2356 38.8186 28.1135C38.3138 27.9445 37.7825 27.86 37.23 27.86H24.77C24.2132 27.86 23.6649 27.9501 23.1533 28.1219C22.7929 28.243 22.38 27.9951 22.38 27.6149V25.66C22.38 22.09 23.47 21 27.04 21H28.22C29.65 21 30.1 21.46 30.68 22.21L31.88 23.81C32.13 24.15 32.14 24.17 32.58 24.17H34.96C38.0857 24.17 39.307 25.0072 39.5611 27.5964Z" fill="#012D59"/>
</svg>
