<svg width="61" height="61" viewBox="0 0 61 61" fill="none" xmlns="http://www.w3.org/2000/svg">
<circle cx="30.5" cy="30.5" r="30.5" fill="#D7EBFF"/>
<path fill-rule="evenodd" clip-rule="evenodd" d="M28.3764 39.0279L37.1628 27.6654C37.6403 27.0527 37.8101 26.3443 37.6509 25.623C37.513 24.9673 37.1097 24.3438 36.5049 23.8708L35.0299 22.6991C33.7459 21.6778 32.1541 21.7853 31.2415 22.9571L30.2546 24.2373C30.1273 24.3975 30.1591 24.634 30.3183 24.763C30.3183 24.763 32.812 26.7625 32.8651 26.8055C33.0349 26.9667 33.1622 27.1817 33.1941 27.4397C33.2471 27.9449 32.8969 28.4179 32.377 28.4824C32.1329 28.5147 31.8994 28.4394 31.7297 28.2997L29.1086 26.2142C28.9813 26.1186 28.7902 26.139 28.6841 26.268L22.4551 34.3303C22.0519 34.8355 21.9139 35.4912 22.0519 36.1255L22.8478 39.5761C22.8902 39.7589 23.0494 39.8879 23.2404 39.8879L26.7422 39.8449C27.3789 39.8341 27.9732 39.5439 28.3764 39.0279ZM33.2797 37.9533H38.9898C39.5469 37.9533 40 38.4123 40 38.9766C40 39.5421 39.5469 40 38.9898 40H33.2797C32.7226 40 32.2695 39.5421 32.2695 38.9766C32.2695 38.4123 32.7226 37.9533 33.2797 37.9533Z" fill="#012D59"/>
</svg>
