<svg width="61" height="61" viewBox="0 0 61 61" fill="none" xmlns="http://www.w3.org/2000/svg">
<circle cx="30.5" cy="30.5" r="30.5" fill="#D7EBFF"/>
<path d="M31.6777 38.9571C31.9524 39.021 31.9776 39.3808 31.71 39.47L30.13 39.99C26.16 41.27 24.07 40.2 22.78 36.23L21.5 32.28C20.22 28.31 21.28 26.21 25.25 24.93L25.774 24.7565C26.1768 24.6231 26.5689 25.0271 26.4545 25.4358C26.3978 25.6384 26.3433 25.8498 26.29 26.07L25.31 30.26C24.21 34.97 25.82 37.57 30.53 38.69L31.6777 38.9571Z" fill="#012D59"/>
<path d="M36.1701 22.21L34.5001 21.82C31.1601 21.03 29.1701 21.68 28.0001 24.1C27.7001 24.71 27.4601 25.45 27.2601 26.3L26.2801 30.49C25.3001 34.67 26.5901 36.73 30.7601 37.72L32.4401 38.12C33.0201 38.26 33.5601 38.35 34.0601 38.39C37.1801 38.69 38.8401 37.23 39.6801 33.62L40.6601 29.44C41.6401 25.26 40.3601 23.19 36.1701 22.21ZM34.2901 32.33C34.2001 32.67 33.9001 32.89 33.5601 32.89C33.5001 32.89 33.4401 32.88 33.3701 32.87L30.4601 32.13C30.0601 32.03 29.8201 31.62 29.9201 31.22C30.0201 30.82 30.4301 30.58 30.8301 30.68L33.7401 31.42C34.1501 31.52 34.3901 31.93 34.2901 32.33ZM37.2201 28.95C37.1301 29.29 36.8301 29.51 36.4901 29.51C36.4301 29.51 36.3701 29.5 36.3001 29.49L31.4501 28.26C31.0501 28.16 30.8101 27.75 30.9101 27.35C31.0101 26.95 31.4201 26.71 31.8201 26.81L36.6701 28.04C37.0801 28.13 37.3201 28.54 37.2201 28.95Z" fill="#012D59"/>
</svg>
