<svg width="61" height="61" viewBox="0 0 61 61" fill="none" xmlns="http://www.w3.org/2000/svg">
<circle cx="30.5" cy="30.5" r="30.5" fill="#D7EBFF"/>
<path d="M41 23.85V35.74C41 36.71 40.21 37.6 39.24 37.72L38.93 37.76C37.29 37.98 34.98 38.66 33.12 39.44C32.47 39.71 31.75 39.22 31.75 38.51V24.6C31.75 24.23 31.96 23.89 32.29 23.71C34.12 22.72 36.89 21.84 38.77 21.68H38.83C40.03 21.68 41 22.65 41 23.85Z" fill="#012D59"/>
<path d="M29.71 23.71C27.88 22.72 25.11 21.84 23.23 21.68H23.16C21.96 21.68 20.99 22.65 20.99 23.85V35.74C20.99 36.71 21.78 37.6 22.75 37.72L23.06 37.76C24.7 37.98 27.01 38.66 28.87 39.44C29.52 39.71 30.24 39.22 30.24 38.51V24.6C30.24 24.22 30.04 23.89 29.71 23.71ZM24 26.74H26.25C26.66 26.74 27 27.08 27 27.49C27 27.91 26.66 28.24 26.25 28.24H24C23.59 28.24 23.25 27.91 23.25 27.49C23.25 27.08 23.59 26.74 24 26.74ZM27 31.24H24C23.59 31.24 23.25 30.91 23.25 30.49C23.25 30.08 23.59 29.74 24 29.74H27C27.41 29.74 27.75 30.08 27.75 30.49C27.75 30.91 27.41 31.24 27 31.24Z" fill="#012D59"/>
</svg>
