<svg width="64" height="64" viewBox="0 0 64 64" fill="none" xmlns="http://www.w3.org/2000/svg">
<circle opacity="0.1" cx="32" cy="32" r="32" fill="#012D59"/>
<path d="M40.5 36.75H38.25V34.5C38.25 34.09 37.91 33.75 37.5 33.75C37.09 33.75 36.75 34.09 36.75 34.5V36.75H34.5C34.09 36.75 33.75 37.09 33.75 37.5C33.75 37.91 34.09 38.25 34.5 38.25H36.75V40.5C36.75 40.91 37.09 41.25 37.5 41.25C37.91 41.25 38.25 40.91 38.25 40.5V38.25H40.5C40.91 38.25 41.25 37.91 41.25 37.5C41.25 37.09 40.91 36.75 40.5 36.75Z" fill="#012D59"/>
<path d="M42.0002 28.52V23.98C42.0002 22.57 41.3602 22 39.7702 22H35.7302C34.1402 22 33.5002 22.57 33.5002 23.98V28.51C33.5002 29.93 34.1402 30.49 35.7302 30.49H39.7702C41.3602 30.5 42.0002 29.93 42.0002 28.52Z" fill="#012D59"/>
<path d="M30.5002 28.52V23.98C30.5002 22.57 29.8602 22 28.2702 22H24.2302C22.6402 22 22.0002 22.57 22.0002 23.98V28.51C22.0002 29.93 22.6402 30.49 24.2302 30.49H28.2702C29.8602 30.5 30.5002 29.93 30.5002 28.52Z" fill="#012D59"/>
<path d="M30.5002 39.77V35.73C30.5002 34.14 29.8602 33.5 28.2702 33.5H24.2302C22.6402 33.5 22.0002 34.14 22.0002 35.73V39.77C22.0002 41.36 22.6402 42 24.2302 42H28.2702C29.8602 42 30.5002 41.36 30.5002 39.77Z" fill="#012D59"/>
</svg>
