<svg width="29" height="24" viewBox="0 0 29 24" fill="none" xmlns="http://www.w3.org/2000/svg">
<g id="Iconly/Light-Outline/Category">
<g id="Category">
<path id="Fill 1" fill-rule="evenodd" clip-rule="evenodd" d="M13.25 3.5C10.5 3.5 10.5 3.708 10.5 6.25V6.275C10.5 7.382 10.5 8.182 10.771 8.52C11.036 8.848 11.823 9 13.25 9C14.677 9 15.464 8.847 15.729 8.519C16 8.182 16 7.382 16 6.274C16 3.708 16 3.5 13.25 3.5ZM13.25 10.5C11.564 10.5 10.299 10.323 9.604 9.46C9 8.711 9 7.689 9 6.275L9.75 6.25H9C9 3.38 9.181 2 13.25 2C17.319 2 17.5 3.38 17.5 6.25C17.5 7.688 17.5 8.711 16.896 9.46C16.201 10.323 14.936 10.5 13.25 10.5Z" fill="#808191"/>
<path id="Fill 3" fill-rule="evenodd" clip-rule="evenodd" d="M24.25 3.5C21.5 3.5 21.5 3.708 21.5 6.25V6.275C21.5 7.382 21.5 8.182 21.771 8.52C22.036 8.848 22.823 9 24.25 9C25.677 9 26.464 8.847 26.729 8.519C27 8.182 27 7.382 27 6.274C27 3.708 27 3.5 24.25 3.5ZM24.25 10.5C22.564 10.5 21.299 10.323 20.604 9.46C20 8.711 20 7.689 20 6.275L20.75 6.25H20C20 3.38 20.181 2 24.25 2C28.319 2 28.5 3.38 28.5 6.25C28.5 7.688 28.5 8.711 27.896 9.46C27.201 10.323 25.936 10.5 24.25 10.5Z" fill="#808191"/>
<path id="Fill 5" fill-rule="evenodd" clip-rule="evenodd" d="M13.25 14.5C10.5 14.5 10.5 14.708 10.5 17.25V17.275C10.5 18.382 10.5 19.182 10.771 19.52C11.036 19.848 11.823 20 13.25 20C14.677 20 15.464 19.847 15.729 19.519C16 19.182 16 18.382 16 17.274C16 14.708 16 14.5 13.25 14.5ZM13.25 21.5C11.564 21.5 10.299 21.323 9.604 20.46C9 19.711 9 18.689 9 17.275L9.75 17.25H9C9 14.38 9.181 13 13.25 13C17.319 13 17.5 14.38 17.5 17.25C17.5 18.688 17.5 19.711 16.896 20.46C16.201 21.323 14.936 21.5 13.25 21.5Z" fill="#808191"/>
<path id="Fill 7" fill-rule="evenodd" clip-rule="evenodd" d="M24.25 14.5C21.5 14.5 21.5 14.708 21.5 17.25V17.275C21.5 18.382 21.5 19.182 21.771 19.52C22.036 19.848 22.823 20 24.25 20C25.677 20 26.464 19.847 26.729 19.519C27 19.182 27 18.382 27 17.274C27 14.708 27 14.5 24.25 14.5ZM24.25 21.5C22.564 21.5 21.299 21.323 20.604 20.46C20 19.711 20 18.689 20 17.275L20.75 17.25H20C20 14.38 20.181 13 24.25 13C28.319 13 28.5 14.38 28.5 17.25C28.5 18.688 28.5 19.711 27.896 20.46C27.201 21.323 25.936 21.5 24.25 21.5Z" fill="#808191"/>
</g>
</g>
</svg>
