<svg width="24" height="24" viewBox="0 0 24 24" fill="none" xmlns="http://www.w3.org/2000/svg">
<g id="Iconly/Light-Outline/Document">
<g id="Document">
<path id="Fill 1" fill-rule="evenodd" clip-rule="evenodd" d="M17.7156 16.9737H10.4956C10.0816 16.9737 9.74561 16.6377 9.74561 16.2237C9.74561 15.8097 10.0816 15.4737 10.4956 15.4737H17.7156C18.1296 15.4737 18.4656 15.8097 18.4656 16.2237C18.4656 16.6377 18.1296 16.9737 17.7156 16.9737Z" fill="#808191"/>
<path id="Fill 3" fill-rule="evenodd" clip-rule="evenodd" d="M17.7156 12.7872H10.4956C10.0816 12.7872 9.74561 12.4512 9.74561 12.0372C9.74561 11.6232 10.0816 11.2872 10.4956 11.2872H17.7156C18.1296 11.2872 18.4656 11.6232 18.4656 12.0372C18.4656 12.4512 18.1296 12.7872 17.7156 12.7872Z" fill="#808191"/>
<path id="Fill 5" fill-rule="evenodd" clip-rule="evenodd" d="M13.2506 8.6104H10.4956C10.0816 8.6104 9.74561 8.2744 9.74561 7.8604C9.74561 7.4464 10.0816 7.1104 10.4956 7.1104H13.2506C13.6646 7.1104 14.0006 7.4464 14.0006 7.8604C14.0006 8.2744 13.6646 8.6104 13.2506 8.6104Z" fill="#808191"/>
<g id="Group 9">
<mask id="mask0_33465_2450" style="mask-type:alpha" maskUnits="userSpaceOnUse" x="5" y="2" width="19" height="20">
<path id="Clip 8" fill-rule="evenodd" clip-rule="evenodd" d="M5 2.0002H23.1647V21.91H5V2.0002Z" fill="white"/>
</mask>
<g mask="url(#mask0_33465_2450)">
<path id="Fill 7" fill-rule="evenodd" clip-rule="evenodd" d="M17.9085 3.5L10.2195 3.504C7.89151 3.518 6.49951 4.958 6.49951 7.357V16.553C6.49951 18.968 7.90451 20.41 10.2555 20.41L17.9445 20.407C20.2725 20.393 21.6645 18.951 21.6645 16.553V7.357C21.6645 4.942 20.2605 3.5 17.9085 3.5ZM10.2565 21.91C7.11251 21.91 4.99951 19.757 4.99951 16.553V7.357C4.99951 4.124 7.04651 2.023 10.2145 2.004L17.9075 2H17.9085C21.0525 2 23.1645 4.153 23.1645 7.357V16.553C23.1645 19.785 21.1175 21.887 17.9495 21.907L10.2565 21.91Z" fill="#808191"/>
</g>
</g>
</g>
</g>
</svg>
