<svg width="61" height="61" viewBox="0 0 61 61" fill="none" xmlns="http://www.w3.org/2000/svg">
<circle cx="30.5" cy="30.5" r="30.5" fill="#D7EBFF"/>
<path fill-rule="evenodd" clip-rule="evenodd" d="M23.25 25C23.25 22.3766 25.3766 20.25 28 20.25C30.6234 20.25 32.75 22.3766 32.75 25C32.75 27.6234 30.6234 29.75 28 29.75C25.3766 29.75 23.25 27.6234 23.25 25ZM39.75 26C39.75 25.5858 39.4142 25.25 39 25.25C38.5858 25.25 38.25 25.5858 38.25 26V28.25H36C35.5858 28.25 35.25 28.5858 35.25 29C35.25 29.4142 35.5858 29.75 36 29.75H38.25V32C38.25 32.4142 38.5858 32.75 39 32.75C39.4142 32.75 39.75 32.4142 39.75 32V29.75H42C42.4142 29.75 42.75 29.4142 42.75 29C42.75 28.5858 42.4142 28.25 42 28.25H39.75V26ZM25.8 32.25C22.7348 32.25 20.25 34.7348 20.25 37.8C20.25 39.9815 22.0185 41.75 24.2 41.75H31.8C33.9815 41.75 35.75 39.9815 35.75 37.8C35.75 34.7348 33.2652 32.25 30.2 32.25H25.8Z" fill="#012D59"/>
</svg>
