<svg width="61" height="61" viewBox="0 0 61 61" fill="none" xmlns="http://www.w3.org/2000/svg">
<circle cx="30.5" cy="30.5" r="30.5" fill="#D7EBFF"/>
<path fill-rule="evenodd" clip-rule="evenodd" d="M37.3893 26.7522C37.9161 24.8711 38.1794 23.9305 37.935 23.2851C37.7219 22.7224 37.2776 22.2781 36.7149 22.065C36.0695 21.8206 35.1289 22.0839 33.2478 22.6106L23.7606 25.2671C20.7895 26.099 19.3039 26.5149 18.8734 27.2212C18.5011 27.8321 18.4654 28.5905 18.7786 29.2336C19.1408 29.9773 20.5806 30.5311 23.4604 31.6387L25.6062 32.4639C25.9821 32.6085 26.415 32.5244 26.6998 32.2396L29.4697 29.4697C29.7626 29.1768 30.2374 29.1768 30.5303 29.4697C30.8232 29.7626 30.8232 30.2375 30.5303 30.5304L27.7604 33.3003C27.4756 33.5851 27.3915 34.018 27.5361 34.3939L28.3612 36.5395C29.4688 39.4193 30.0226 40.8592 30.7662 41.2213C31.4094 41.5346 32.1678 41.4988 32.7786 41.1265C33.4849 40.6961 33.9009 39.2105 34.7329 36.2393L37.3893 26.7522Z" fill="#012D59"/>
</svg>
