<svg width="109" height="109" viewBox="0 0 109 109" fill="none" xmlns="http://www.w3.org/2000/svg">
<circle cx="54.5" cy="54.5" r="54.5" fill="#D7EBFF"/>
<path d="M72.468 77.6581H32.5923C31.684 77.6581 30.9308 76.9049 30.9308 75.9966C30.9308 75.0883 31.684 74.3351 32.5923 74.3351H72.468C73.3763 74.3351 74.1295 75.0883 74.1295 75.9966C74.1295 76.9049 73.3763 77.6581 72.468 77.6581Z" fill="#012D59"/>
<path d="M38.3521 45.8239H34.8076C33.5892 45.8239 32.5923 46.8207 32.5923 48.0392V67.1352C32.5923 68.3537 33.5892 69.3505 34.8076 69.3505H38.3521C39.5706 69.3505 40.5675 68.3537 40.5675 67.1352V48.0392C40.5675 46.7986 39.5706 45.8239 38.3521 45.8239Z" fill="#012D59"/>
<path d="M54.3024 38.757H50.7579C49.5395 38.757 48.5426 39.7539 48.5426 40.9723V67.1353C48.5426 68.3537 49.5395 69.3506 50.7579 69.3506H54.3024C55.5208 69.3506 56.5177 68.3537 56.5177 67.1353V40.9723C56.5177 39.7539 55.5208 38.757 54.3024 38.757Z" fill="#012D59"/>
<path d="M70.2527 31.6901H66.7081C65.4897 31.6901 64.4928 32.687 64.4928 33.9054V67.1352C64.4928 68.3537 65.4897 69.3506 66.7081 69.3506H70.2527C71.4711 69.3506 72.468 68.3537 72.468 67.1352V33.9054C72.468 32.687 71.4711 31.6901 70.2527 31.6901Z" fill="#012D59"/>
</svg>
