<svg width="29" height="29" viewBox="0 0 29 29" fill="none" xmlns="http://www.w3.org/2000/svg">
<path fill-rule="evenodd" clip-rule="evenodd" d="M15.4061 10.0501H17.3249C19.6311 10.0501 20.7561 11.2814 20.7499 13.8064V16.8501C20.7499 19.2626 19.2624 20.7501 16.8436 20.7501H12.1499C9.74363 20.7501 8.24988 19.2626 8.24988 16.8439V12.1501C8.24988 9.56261 9.39988 8.25011 11.6686 8.25011H12.6561C13.238 8.24386 13.7811 8.51261 14.1374 8.96886L14.6874 9.70011C14.8624 9.91886 15.1249 10.0501 15.4061 10.0501ZM11.6061 16.5564H17.3936C17.6499 16.5564 17.8561 16.3439 17.8561 16.0876C17.8561 15.8251 17.6499 15.6189 17.3936 15.6189H11.6061C11.3436 15.6189 11.1374 15.8251 11.1374 16.0876C11.1374 16.3439 11.3436 16.5564 11.6061 16.5564Z" fill="#012D59"/>
<circle cx="14.5" cy="14.5" r="14.3" stroke="#D1D1D1" stroke-width="0.4"/>
</svg>
