<svg width="44" height="44" viewBox="0 0 44 44" fill="none" xmlns="http://www.w3.org/2000/svg">
<rect x="0.5" y="0.5" width="43" height="43" rx="13.5" fill="white" stroke="#F2F2F2"/>
<path fill-rule="evenodd" clip-rule="evenodd" d="M25.7158 26.9737H18.4958C18.0818 26.9737 17.7458 26.6377 17.7458 26.2237C17.7458 25.8097 18.0818 25.4737 18.4958 25.4737H25.7158C26.1298 25.4737 26.4658 25.8097 26.4658 26.2237C26.4658 26.6377 26.1298 26.9737 25.7158 26.9737Z" fill="#63C679"/>
<path fill-rule="evenodd" clip-rule="evenodd" d="M25.7158 22.7872H18.4958C18.0818 22.7872 17.7458 22.4512 17.7458 22.0372C17.7458 21.6232 18.0818 21.2872 18.4958 21.2872H25.7158C26.1298 21.2872 26.4658 21.6232 26.4658 22.0372C26.4658 22.4512 26.1298 22.7872 25.7158 22.7872Z" fill="#63C679"/>
<path fill-rule="evenodd" clip-rule="evenodd" d="M21.2505 18.6104H18.4955C18.0815 18.6104 17.7455 18.2744 17.7455 17.8604C17.7455 17.4464 18.0815 17.1104 18.4955 17.1104H21.2505C21.6645 17.1104 22.0005 17.4464 22.0005 17.8604C22.0005 18.2744 21.6645 18.6104 21.2505 18.6104Z" fill="#63C679"/>
<mask id="mask0_33550_3110" style="mask-type:alpha" maskUnits="userSpaceOnUse" x="13" y="12" width="19" height="20">
<path fill-rule="evenodd" clip-rule="evenodd" d="M13 12.0002H31.1647V31.91H13V12.0002Z" fill="white"/>
</mask>
<g mask="url(#mask0_33550_3110)">
<path fill-rule="evenodd" clip-rule="evenodd" d="M25.9087 13.5L18.2197 13.504C15.8917 13.518 14.4997 14.958 14.4997 17.357V26.553C14.4997 28.968 15.9047 30.41 18.2557 30.41L25.9447 30.407C28.2727 30.393 29.6647 28.951 29.6647 26.553V17.357C29.6647 14.942 28.2607 13.5 25.9087 13.5ZM18.2567 31.91C15.1127 31.91 12.9997 29.757 12.9997 26.553V17.357C12.9997 14.124 15.0467 12.023 18.2147 12.004L25.9077 12H25.9087C29.0527 12 31.1647 14.153 31.1647 17.357V26.553C31.1647 29.785 29.1177 31.887 25.9497 31.907L18.2567 31.91Z" fill="#63C679"/>
</g>
</svg>
