<svg width="44" height="44" viewBox="0 0 44 44" fill="none" xmlns="http://www.w3.org/2000/svg">
<rect x="0.5" y="0.5" width="43" height="43" rx="13.5" fill="white" stroke="#F2F2F2"/>
<path fill-rule="evenodd" clip-rule="evenodd" d="M18.9824 16.3035C18.9504 16.3035 18.9184 16.3075 18.8864 16.3155C15.9164 17.0465 13.5004 20.2645 13.5004 23.4885C13.5004 27.5445 16.8004 30.8445 20.8574 30.8445C24.5144 30.8445 27.5704 28.2395 28.1244 24.6495C28.1284 24.6195 28.1424 24.5325 28.0604 24.4355C27.9824 24.3445 27.8584 24.2905 27.7284 24.2905C26.3174 24.2905 25.2404 24.3225 24.3994 24.3465C22.3634 24.4075 21.5214 24.4305 20.6894 23.8135C19.4354 22.8845 19.3294 21.2885 19.3294 16.5945C19.3294 16.5105 19.2934 16.4405 19.2214 16.3845C19.1544 16.3315 19.0694 16.3035 18.9824 16.3035ZM20.8574 32.3445C15.9734 32.3445 12.0004 28.3715 12.0004 23.4885C12.0004 19.6165 14.9284 15.7445 18.5274 14.8585C19.0894 14.7215 19.6934 14.8495 20.1474 15.2035C20.5804 15.5435 20.8294 16.0505 20.8294 16.5945C20.8294 20.9795 20.9774 22.1595 21.5824 22.6085C21.9794 22.9015 22.5234 22.8985 24.3564 22.8475C25.2084 22.8225 26.2994 22.7905 27.7284 22.7905C28.2984 22.7905 28.8354 23.0345 29.1994 23.4595C29.5374 23.8545 29.6854 24.3705 29.6074 24.8785C28.9394 29.2035 25.2594 32.3445 20.8574 32.3445Z" fill="#EA4335"/>
<mask id="mask0_33550_3130" style="mask-type:alpha" maskUnits="userSpaceOnUse" x="22" y="11" width="11" height="11">
<path fill-rule="evenodd" clip-rule="evenodd" d="M22.4741 11.0005H32.893V21.2898H22.4741V11.0005Z" fill="white"/>
</mask>
<g mask="url(#mask0_33550_3130)">
<path fill-rule="evenodd" clip-rule="evenodd" d="M24.0108 12.5018C23.9008 15.0208 24.0638 18.2748 24.1398 19.5638C24.1438 19.6408 24.1998 19.6968 24.2758 19.7008C25.3038 19.7598 28.8458 19.9238 31.3928 19.5488C31.3988 18.1448 30.4378 16.2408 28.9908 14.7948C27.5068 13.3128 25.7508 12.5018 24.0328 12.5018H24.0108ZM27.3148 21.2898C26.0048 21.2898 24.8518 21.2368 24.1888 21.1988C23.3548 21.1498 22.6908 20.4848 22.6428 19.6508C22.5648 18.3288 22.3958 14.9698 22.5158 12.3718C22.5488 11.6168 23.1588 11.0158 23.9048 11.0028C26.0418 10.9408 28.2468 11.9328 30.0508 13.7338C31.8088 15.4908 32.9248 17.7998 32.8928 19.6168C32.8808 20.3258 32.3658 20.9178 31.6698 21.0228C30.3118 21.2278 28.7218 21.2898 27.3148 21.2898Z" fill="#EA4335"/>
</g>
</svg>
