<svg width="44" height="44" viewBox="0 0 44 44" fill="none" xmlns="http://www.w3.org/2000/svg">
<rect x="0.5" y="0.5" width="43" height="43" rx="13.5" fill="white" stroke="#F2F2F2"/>
<mask id="mask0_33550_3120" style="mask-type:alpha" maskUnits="userSpaceOnUse" x="12" y="12" width="21" height="21">
<path fill-rule="evenodd" clip-rule="evenodd" d="M12 12H32.6966V32.6689H12V12Z" fill="white"/>
</mask>
<g mask="url(#mask0_33550_3120)">
<path fill-rule="evenodd" clip-rule="evenodd" d="M17.6426 13.5C14.7386 13.5 13.4996 14.976 13.4996 18.433V26.232C13.4996 29.416 15.2576 31.169 18.4496 31.169H26.2316C29.4156 31.169 31.1686 29.416 31.1686 26.232V26.229L31.1966 21.264C31.1966 17.865 30.0306 16.54 27.0356 16.54H24.2056C23.2566 16.539 22.3506 16.086 21.7806 15.328L20.8676 14.114C20.5806 13.729 20.1216 13.501 19.6416 13.5H17.6426ZM26.2316 32.669H18.4496C14.4716 32.669 11.9996 30.202 11.9996 26.232V18.433C11.9996 14.164 13.8986 12 17.6426 12H19.6426C20.5936 12.001 21.4996 12.455 22.0676 13.214L22.9786 14.426C23.2676 14.81 23.7266 15.039 24.2066 15.04H27.0356C30.8976 15.04 32.6966 17.019 32.6966 21.268L32.6686 26.235C32.6676 30.203 30.2016 32.669 26.2316 32.669Z" fill="#FF991F"/>
</g>
<path fill-rule="evenodd" clip-rule="evenodd" d="M26.7158 25.7128H17.9808C17.5668 25.7128 17.2308 25.3768 17.2308 24.9628C17.2308 24.5488 17.5668 24.2128 17.9808 24.2128H26.7158C27.1298 24.2128 27.4658 24.5488 27.4658 24.9628C27.4658 25.3768 27.1298 25.7128 26.7158 25.7128Z" fill="#FF991F"/>
</svg>
