<svg width="44" height="44" viewBox="0 0 44 44" fill="none" xmlns="http://www.w3.org/2000/svg">
<rect x="0.5" y="0.5" width="43" height="43" rx="13.5" fill="white" stroke="#F2F2F2"/>
<mask id="mask0_33550_3140" style="mask-type:alpha" maskUnits="userSpaceOnUse" x="12" y="12" width="20" height="20">
<path fill-rule="evenodd" clip-rule="evenodd" d="M12.0004 12.0002H31.96V31.95H12.0004V12.0002Z" fill="white"/>
</mask>
<g mask="url(#mask0_33550_3140)">
<path fill-rule="evenodd" clip-rule="evenodd" d="M17.6504 13.5C15.1294 13.5 13.5004 15.227 13.5004 17.899V26.051C13.5004 28.724 15.1294 30.45 17.6504 30.45H26.3004C28.8274 30.45 30.4604 28.724 30.4604 26.051V17.899C30.4604 15.227 28.8274 13.5 26.3004 13.5H17.6504ZM26.3004 31.95H17.6504C14.2704 31.95 12.0004 29.579 12.0004 26.051V17.899C12.0004 14.371 14.2704 12 17.6504 12H26.3004C29.6854 12 31.9604 14.371 31.9604 17.899V26.051C31.9604 29.579 29.6854 31.95 26.3004 31.95Z" fill="#1F61A4"/>
</g>
<path fill-rule="evenodd" clip-rule="evenodd" d="M15.2814 27.1804C15.0954 27.1804 14.9104 27.1124 14.7654 26.9744C14.4644 26.6904 14.4524 26.2144 14.7374 25.9154L16.2654 24.3024C17.0744 23.4434 18.4394 23.4014 19.3024 24.2114L20.2604 25.1834C20.5274 25.4534 20.9614 25.4584 21.2294 25.1944C21.3304 25.0754 23.5084 22.4304 23.5084 22.4304C23.9224 21.9284 24.5064 21.6184 25.1554 21.5544C25.8054 21.4974 26.4364 21.6864 26.9394 22.0994C26.9824 22.1344 27.0214 22.1684 29.2174 24.4234C29.5064 24.7194 29.5014 25.1944 29.2044 25.4834C28.9084 25.7744 28.4324 25.7654 28.1434 25.4694C28.1434 25.4694 26.0944 23.3664 25.9484 23.2244C25.7934 23.0974 25.5444 23.0234 25.2994 23.0474C25.0504 23.0724 24.8264 23.1914 24.6674 23.3844C22.3434 26.2034 22.3154 26.2304 22.2774 26.2674C21.4194 27.1094 20.0344 27.0954 19.1914 26.2354C19.1914 26.2354 18.2614 25.2914 18.2454 25.2724C18.0144 25.0584 17.6024 25.0724 17.3554 25.3334L15.8254 26.9464C15.6774 27.1024 15.4794 27.1804 15.2814 27.1804Z" fill="#1F61A4"/>
<path fill-rule="evenodd" clip-rule="evenodd" d="M18.5576 18.1289C18.0046 18.1289 17.5546 18.5789 17.5546 19.1329C17.5546 19.6869 18.0046 20.1379 18.5586 20.1379C19.1126 20.1379 19.5636 19.6869 19.5636 19.1329C19.5636 18.5799 19.1126 18.1299 18.5576 18.1289ZM18.5586 21.6379C17.1776 21.6379 16.0546 20.5139 16.0546 19.1329C16.0546 17.7519 17.1776 16.6289 18.5586 16.6289C19.9406 16.6299 21.0636 17.7539 21.0636 19.1329C21.0636 20.5139 19.9396 21.6379 18.5586 21.6379Z" fill="#1F61A4"/>
</svg>
