<svg width="24" height="24" viewBox="0 0 24 24" fill="none" xmlns="http://www.w3.org/2000/svg">
<path d="M7.5 19H7C3 19 1 18 1 13V8C1 4 3 2 7 2H15C19 2 21 4 21 8V13C21 17 19 19 15 19H14.5C14.19 19 13.89 19.15 13.7 19.4L12.2 21.4C11.54 22.28 10.46 22.28 9.8 21.4L8.3 19.4C8.14 19.18 7.77 19 7.5 19Z" stroke="#808191" stroke-width="1.5" stroke-miterlimit="10" stroke-linecap="round" stroke-linejoin="round"/>
<path d="M6 8H16" stroke="#808191" stroke-width="1.5" stroke-linecap="round" stroke-linejoin="round"/>
<path d="M6 13H12" stroke="#808191" stroke-width="1.5" stroke-linecap="round" stroke-linejoin="round"/>
</svg>
