<svg width="32" height="32" viewBox="0 0 32 32" fill="none" xmlns="http://www.w3.org/2000/svg">
<rect width="32" height="32" rx="16" fill="#012D59"/>
<path fill-rule="evenodd" clip-rule="evenodd" d="M9.25 22C9.25 21.8424 9.29861 21.6962 9.38164 21.5755C9.64906 21.1743 9.74988 21.0214 9.79352 20.941C10.0151 20.5329 10.0828 20.3455 10.1049 20.1882C10.1269 20.0309 10.1133 19.8321 10.0125 19.3788C10.0126 19.3791 10.012 19.3768 10.0107 19.3713L10.0048 19.3492C9.99963 19.3301 9.99247 19.3049 9.98296 19.2725C9.96388 19.2076 9.93753 19.1216 9.90274 19.0103C9.83318 18.7877 9.73391 18.4773 9.59999 18.0584C9.40302 17.4424 9.25 16.7317 9.25 16C9.25 12.2721 12.2721 9.25 16 9.25C19.7279 9.25 22.75 12.2721 22.75 16C22.75 19.7279 19.7279 22.75 16 22.75H10C9.58579 22.75 9.25 22.4142 9.25 22ZM13.3333 13.9167C12.9191 13.9167 12.5833 14.2525 12.5833 14.6667C12.5833 15.0809 12.9191 15.4167 13.3333 15.4167H18.6667C19.0809 15.4167 19.4167 15.0809 19.4167 14.6667C19.4167 14.2525 19.0809 13.9167 18.6667 13.9167H13.3333ZM12.5833 17.3333C12.5833 16.9191 12.9191 16.5833 13.3333 16.5833H16C16.4142 16.5833 16.75 16.9191 16.75 17.3333C16.75 17.7475 16.4142 18.0833 16 18.0833H13.3333C12.9191 18.0833 12.5833 17.7475 12.5833 17.3333Z" fill="white"/>
</svg>
