<svg width="32" height="32" viewBox="0 0 32 32" fill="none" xmlns="http://www.w3.org/2000/svg">
<rect width="32" height="32" rx="16" fill="#012D59"/>
<path d="M16.5 18.6133H16.9333C17.3667 18.6133 17.7267 18.2267 17.7267 17.76C17.7267 17.18 17.52 17.0667 17.18 16.9467L16.5067 16.7133V18.6133H16.5Z" fill="white"/>
<path d="M15.98 9.26667C12.3 9.28001 9.31996 12.2733 9.3333 15.9533C9.34663 19.6333 12.34 22.6133 16.02 22.6C19.7 22.5867 22.68 19.5933 22.6666 15.9133C22.6533 12.2333 19.66 9.26001 15.98 9.26667ZM17.5066 16C18.0266 16.18 18.7266 16.5667 18.7266 17.76C18.7266 18.7867 17.92 19.6133 16.9333 19.6133H16.5V20C16.5 20.2733 16.2733 20.5 16 20.5C15.7266 20.5 15.5 20.2733 15.5 20V19.6133H15.26C14.1666 19.6133 13.28 18.6933 13.28 17.56C13.28 17.2867 13.5066 17.06 13.78 17.06C14.0533 17.06 14.28 17.2867 14.28 17.56C14.28 18.14 14.72 18.6133 15.26 18.6133H15.5V16.36L14.4933 16C13.9733 15.82 13.2733 15.4333 13.2733 14.24C13.2733 13.2133 14.08 12.3867 15.0666 12.3867H15.5V12C15.5 11.7267 15.7266 11.5 16 11.5C16.2733 11.5 16.5 11.7267 16.5 12V12.3867H16.74C17.8333 12.3867 18.72 13.3067 18.72 14.44C18.72 14.7133 18.4933 14.94 18.22 14.94C17.9466 14.94 17.72 14.7133 17.72 14.44C17.72 13.86 17.28 13.3867 16.74 13.3867H16.5V15.64L17.5066 16Z" fill="white"/>
<path d="M14.28 14.2467C14.28 14.8267 14.4867 14.94 14.8267 15.06L15.5 15.2933V13.3867H15.0667C14.6334 13.3867 14.28 13.7733 14.28 14.2467Z" fill="white"/>
</svg>
