<svg width="33" height="33" viewBox="0 0 33 33" fill="none" xmlns="http://www.w3.org/2000/svg">
<rect width="33" height="33" rx="16.5" fill="#012D59"/>
<path d="M14.2788 23.9038H18.7211C22.4231 23.9038 23.9038 22.4231 23.9038 18.7212V14.2788C23.9038 10.5769 22.4231 9.09615 18.7211 9.09615H14.2788C10.5769 9.09615 9.09613 10.5769 9.09613 14.2788V18.7212C9.09613 22.4231 10.5769 23.9038 14.2788 23.9038Z" stroke="white" stroke-width="1.11058" stroke-linecap="round" stroke-linejoin="round"/>
<path d="M12.576 14.4714L16.5 16.7443L20.3944 14.4862" stroke="white" stroke-width="1.11058" stroke-linecap="round" stroke-linejoin="round"/>
<path d="M16.5001 20.772V16.7369" stroke="white" stroke-width="1.11058" stroke-linecap="round" stroke-linejoin="round"/>
<path d="M15.5819 12.2724L13.2127 13.5903C12.6796 13.8865 12.2354 14.6342 12.2354 15.2488V17.7587C12.2354 18.3732 12.6722 19.121 13.2127 19.4171L15.5819 20.735C16.0854 21.0164 16.9146 21.0164 17.4255 20.735L19.7947 19.4171C20.3278 19.121 20.772 18.3732 20.772 17.7587V15.2414C20.772 14.6268 20.3352 13.879 19.7947 13.5829L17.4255 12.265C16.9146 11.9837 16.0854 11.9837 15.5819 12.2724Z" stroke="white" stroke-width="1.11058" stroke-linecap="round" stroke-linejoin="round"/>
</svg>
